<?xml version="1.0" encoding="utf-8"?>
<!-- Generator: Adobe Illustrator 25.0.1, SVG Export Plug-In . SVG Version: 6.00 Build 0)  -->
<svg version="1.1" id="Laag_1" xmlns="http://www.w3.org/2000/svg" xmlns:xlink="http://www.w3.org/1999/xlink" x="0px" y="0px"
	 viewBox="0 0 676.54 274.47" style="enable-background:new 0 0 676.54 274.47;" xml:space="preserve">
<style type="text/css">
	.st0{fill:#006CCF;}
	.st1{fill:#00A7FE;}
	.st2{fill:#FFFFFF;}
</style>
<g>
	<polygon class="st0" points="653.44,19.31 656.15,53.38 656.99,79.85 647.69,96.63 643.68,69.6 636.94,23.94 	"/>
	<polygon class="st0" points="620.26,32.61 632.06,85.58 637.81,112.75 627.7,129.82 618.92,98.95 601.21,37.95 	"/>
	<path class="st1" d="M637.81,112.75l-10.11,17.07c-29.67-17.55-53.06-45.91-63.65-81.45l19.11-5.36
		c6.75,22.38,19.39,41.44,35.76,55.94C624.76,104.15,631.09,108.78,637.81,112.75"/>
	<path class="st1" d="M656.86,80.56l-9.5,16.07c-5.41-3.2-10.54-6.89-15.29-11.04c-12.62-10.99-22.68-25.14-28.84-41.7
		c-0.74-1.95-1.39-3.93-2.02-5.94l19.05-5.34c4.73,15.21,12.31,28.48,23.48,38.4C647.83,74.62,652.22,77.81,656.86,80.56"/>
	<path class="st1" d="M674,45.47l-8.48,14.3c-3.81-2.24-7.4-4.89-10.67-7.89c-8.09-7.35-14.37-16.85-17.91-27.93l16.5-4.63
		C657.01,29.88,664.98,40.14,674,45.47"/>
	<path class="st2" d="M64.9,102.73c0.95,3.26,2,6.94,3.15,11.03c1.15,4.09,2.38,8.33,3.69,12.7c1.31,4.37,2.64,8.75,3.99,13.12
		c1.35,4.37,2.66,8.43,3.93,12.16c1.04-4.05,2.1-8.47,3.18-13.24c1.08-4.77,2.1-9.7,3.05-14.79c0.96-5.09,1.9-10.15,2.82-15.2
		c0.92-5.05,1.78-9.92,2.58-14.61h19.32c-2.8,13.83-6.02,27.87-9.66,42.1c-3.64,14.23-7.58,27.75-11.82,40.55H72.12
		c-2.78-7.63-5.48-15.64-8.09-24.03c-2.62-8.39-5.2-16.79-7.74-25.22c-2.55,8.43-5.09,16.83-7.64,25.22
		c-2.55,8.39-5.21,16.4-8,24.03h-17c-4.23-12.8-8.16-26.31-11.8-40.55C8.21,121.78,5,107.74,2.2,93.91h20.15
		c0.8,4.69,1.68,9.56,2.64,14.61c0.96,5.05,1.96,10.12,3,15.2c1.04,5.09,2.1,10.02,3.18,14.79c1.08,4.77,2.18,9.18,3.3,13.24
		c1.43-3.89,2.83-8.03,4.18-12.4c1.35-4.37,2.67-8.74,3.94-13.12c1.27-4.37,2.45-8.59,3.52-12.64c1.07-4.05,2.05-7.67,2.93-10.85
		H64.9z"/>
	<path class="st2" d="M110.73,145.67c0-5.57,0.85-10.44,2.56-14.61c1.71-4.17,3.95-7.65,6.74-10.44c2.78-2.78,5.98-4.89,9.6-6.32
		c3.62-1.43,7.33-2.15,11.15-2.15c8.9,0,15.94,2.72,21.11,8.17c5.17,5.45,7.75,13.46,7.75,24.03c0,1.03-0.04,2.17-0.12,3.4
		c-0.08,1.23-0.16,2.33-0.24,3.28h-40.31c0.4,3.66,2.11,6.56,5.13,8.7c3.02,2.15,7.08,3.22,12.16,3.22c3.26,0,6.46-0.3,9.6-0.89
		c3.14-0.6,5.7-1.33,7.69-2.21l2.39,14.43c-0.95,0.48-2.23,0.95-3.82,1.43c-1.59,0.48-3.36,0.9-5.31,1.25
		c-1.95,0.36-4.04,0.66-6.26,0.89c-2.23,0.24-4.45,0.36-6.68,0.36c-5.65,0-10.55-0.83-14.73-2.51c-4.17-1.67-7.63-3.95-10.38-6.86
		c-2.74-2.9-4.77-6.34-6.08-10.32C111.38,154.57,110.73,150.28,110.73,145.67 M152.47,138.87c-0.08-1.51-0.34-2.98-0.77-4.41
		c-0.44-1.43-1.12-2.7-2.03-3.82c-0.92-1.11-2.07-2.03-3.46-2.74c-1.39-0.72-3.12-1.07-5.19-1.07c-1.99,0-3.7,0.34-5.13,1.01
		c-1.43,0.68-2.62,1.57-3.58,2.68c-0.95,1.11-1.69,2.41-2.21,3.88c-0.52,1.47-0.89,2.96-1.13,4.47H152.47z"/>
	<path class="st2" d="M238.09,145.19c0,5.01-0.74,9.54-2.21,13.59c-1.47,4.05-3.6,7.51-6.38,10.38c-2.78,2.86-6.2,5.07-10.25,6.62
		c-4.06,1.55-8.67,2.33-13.83,2.33c-2.15,0-4.39-0.1-6.74-0.3c-2.35-0.2-4.65-0.46-6.92-0.77c-2.27-0.32-4.43-0.7-6.5-1.13
		c-2.07-0.44-3.9-0.89-5.48-1.37V86.87l17.77-2.86v31.24c1.99-0.87,4.05-1.55,6.2-2.03c2.15-0.48,4.45-0.72,6.92-0.72
		c4.45,0,8.39,0.77,11.81,2.33c3.42,1.55,6.28,3.76,8.59,6.62c2.3,2.86,4.05,6.3,5.25,10.32
		C237.49,135.79,238.09,140.26,238.09,145.19 M219.96,144.71c0-11.45-4.22-17.17-12.64-17.17c-1.83,0-3.64,0.24-5.43,0.72
		c-1.79,0.48-3.24,1.07-4.35,1.79v32.32c0.87,0.16,1.99,0.3,3.34,0.42c1.35,0.12,2.82,0.18,4.41,0.18c4.85,0,8.5-1.67,10.97-5.01
		C218.73,154.61,219.96,150.2,219.96,144.71"/>
	<path class="st2" d="M303.56,174.52c-1.59,0.48-3.42,0.94-5.48,1.37c-2.07,0.44-4.23,0.81-6.5,1.13c-2.27,0.32-4.57,0.58-6.92,0.77
		c-2.35,0.2-4.59,0.3-6.74,0.3c-5.17,0-9.78-0.76-13.83-2.27c-4.05-1.51-7.47-3.68-10.25-6.5c-2.78-2.82-4.91-6.24-6.38-10.26
		c-1.47-4.01-2.21-8.53-2.21-13.54c0-5.09,0.64-9.68,1.91-13.77c1.27-4.09,3.1-7.57,5.49-10.44c2.39-2.86,5.31-5.05,8.76-6.56
		c3.46-1.51,7.41-2.27,11.87-2.27c2.46,0,4.67,0.24,6.62,0.72c1.95,0.48,3.91,1.15,5.9,2.03V86.87l17.77-2.86V174.52z
		 M263.37,144.71c0,5.49,1.23,9.9,3.7,13.24c2.46,3.34,6.12,5.01,10.97,5.01c1.59,0,3.06-0.06,4.41-0.18
		c1.35-0.12,2.46-0.26,3.34-0.42v-32.32c-1.12-0.72-2.56-1.31-4.35-1.79c-1.79-0.48-3.6-0.72-5.43-0.72
		C267.58,127.54,263.37,133.26,263.37,144.71"/>
	<path class="st2" d="M313.69,145.67c0-5.57,0.85-10.44,2.56-14.61c1.71-4.17,3.95-7.65,6.74-10.44c2.78-2.78,5.98-4.89,9.6-6.32
		c3.62-1.43,7.33-2.15,11.15-2.15c8.9,0,15.94,2.72,21.11,8.17c5.17,5.45,7.75,13.46,7.75,24.03c0,1.03-0.04,2.17-0.12,3.4
		c-0.08,1.23-0.16,2.33-0.24,3.28h-40.31c0.4,3.66,2.1,6.56,5.13,8.7c3.02,2.15,7.07,3.22,12.16,3.22c3.26,0,6.46-0.3,9.6-0.89
		c3.14-0.6,5.7-1.33,7.69-2.21l2.39,14.43c-0.95,0.48-2.23,0.95-3.82,1.43c-1.59,0.48-3.36,0.9-5.31,1.25
		c-1.95,0.36-4.04,0.66-6.26,0.89c-2.23,0.24-4.45,0.36-6.68,0.36c-5.65,0-10.55-0.83-14.73-2.51c-4.17-1.67-7.63-3.95-10.38-6.86
		c-2.74-2.9-4.77-6.34-6.08-10.32C314.35,154.57,313.69,150.28,313.69,145.67 M355.43,138.87c-0.08-1.51-0.34-2.98-0.78-4.41
		c-0.44-1.43-1.11-2.7-2.03-3.82c-0.92-1.11-2.07-2.03-3.46-2.74c-1.39-0.72-3.12-1.07-5.19-1.07c-1.99,0-3.7,0.34-5.13,1.01
		c-1.43,0.68-2.62,1.57-3.58,2.68c-0.95,1.11-1.69,2.41-2.2,3.88c-0.52,1.47-0.9,2.96-1.13,4.47H355.43z"/>
	<path class="st2" d="M400.75,163.79c3.26,0,5.56-0.32,6.92-0.95c1.35-0.64,2.03-1.87,2.03-3.7c0-1.43-0.88-2.68-2.62-3.76
		c-1.75-1.07-4.41-2.28-7.99-3.64c-2.79-1.03-5.31-2.1-7.57-3.22c-2.27-1.11-4.2-2.44-5.78-3.99c-1.59-1.55-2.82-3.4-3.7-5.54
		c-0.87-2.15-1.31-4.73-1.31-7.75c0-5.88,2.19-10.53,6.56-13.95c4.37-3.42,10.38-5.13,18.01-5.13c3.82,0,7.47,0.34,10.97,1.01
		c3.5,0.68,6.28,1.41,8.35,2.2l-3.1,13.83c-2.07-0.72-4.31-1.35-6.74-1.91c-2.43-0.56-5.15-0.84-8.17-0.84
		c-5.57,0-8.35,1.55-8.35,4.65c0,0.72,0.12,1.35,0.36,1.91c0.24,0.56,0.72,1.09,1.43,1.61c0.72,0.52,1.69,1.08,2.92,1.68
		c1.23,0.6,2.8,1.26,4.71,1.98c3.89,1.44,7.11,2.87,9.66,4.27c2.54,1.4,4.55,2.92,6.02,4.54c1.47,1.63,2.51,3.43,3.1,5.41
		c0.6,1.98,0.89,4.28,0.89,6.9c0,6.19-2.32,10.87-6.98,14.04c-4.65,3.17-11.23,4.76-19.74,4.76c-5.57,0-10.2-0.48-13.89-1.43
		c-3.7-0.95-6.26-1.75-7.69-2.38l2.98-14.43c3.02,1.19,6.12,2.13,9.3,2.8C394.5,163.45,397.65,163.79,400.75,163.79"/>
	<path class="st2" d="M456.44,95.7c0,3.26-1.05,5.82-3.16,7.69c-2.11,1.87-4.59,2.8-7.45,2.8c-2.86,0-5.35-0.93-7.45-2.8
		c-2.11-1.87-3.16-4.43-3.16-7.69c0-3.26,1.05-5.82,3.16-7.69c2.11-1.87,4.59-2.8,7.45-2.8c2.86,0,5.35,0.94,7.45,2.8
		C455.38,89.88,456.44,92.44,456.44,95.7 M454.77,176.55H437v-62.73h17.77V176.55z"/>
	<path class="st2" d="M522.02,168.68c0,10.25-2.61,17.87-7.81,22.84c-5.21,4.97-13.26,7.45-24.15,7.45c-3.82,0-7.63-0.34-11.45-1.01
		c-3.82-0.68-7.36-1.57-10.61-2.68l3.1-14.91c2.78,1.11,5.7,1.99,8.77,2.62c3.06,0.64,6.54,0.95,10.44,0.95
		c5.09,0,8.68-1.11,10.79-3.34c2.1-2.23,3.16-5.09,3.16-8.59v-2.26c-1.91,0.87-3.88,1.53-5.9,1.97c-2.03,0.44-4.23,0.66-6.62,0.66
		c-8.67,0-15.3-2.56-19.91-7.69c-4.61-5.13-6.92-12.3-6.92-21.53c0-4.61,0.72-8.8,2.15-12.58c1.43-3.77,3.52-7.02,6.26-9.72
		c2.74-2.7,6.1-4.79,10.08-6.26c3.97-1.47,8.47-2.2,13.47-2.2c2.15,0,4.35,0.1,6.62,0.3c2.27,0.2,4.51,0.46,6.74,0.78
		c2.22,0.32,4.35,0.7,6.38,1.13c2.03,0.44,3.83,0.89,5.43,1.37V168.68z M483.03,143.16c0,9.94,4.01,14.91,12.04,14.91
		c1.83,0,3.54-0.24,5.13-0.72c1.59-0.48,2.94-1.03,4.05-1.67V127.3c-0.88-0.16-1.91-0.3-3.1-0.42c-1.19-0.12-2.59-0.18-4.17-0.18
		c-4.69,0-8.19,1.55-10.49,4.65C484.18,134.46,483.03,138.39,483.03,143.16"/>
	<path class="st2" d="M535.14,115.97c3.02-0.87,6.92-1.69,11.69-2.45c4.77-0.75,9.78-1.13,15.03-1.13c5.32,0,9.76,0.7,13.3,2.09
		c3.54,1.39,6.34,3.36,8.41,5.9c2.07,2.55,3.54,5.57,4.41,9.06c0.87,3.5,1.31,7.39,1.31,11.69v35.42h-17.77v-33.27
		c0-5.72-0.76-9.78-2.27-12.16c-1.51-2.39-4.33-3.58-8.47-3.58c-1.27,0-2.62,0.06-4.05,0.18c-1.43,0.12-2.7,0.26-3.82,0.42v48.42
		h-17.77V115.97z"/>
	<path class="st1" d="M336.8,235.77c0,2.31-0.34,4.42-1.01,6.32c-0.67,1.9-1.62,3.52-2.85,4.87c-1.23,1.34-2.71,2.39-4.45,3.13
		c-1.73,0.74-3.64,1.12-5.73,1.12c-2.09,0-3.99-0.37-5.7-1.12c-1.72-0.74-3.19-1.79-4.42-3.13c-1.23-1.34-2.19-2.96-2.88-4.87
		c-0.69-1.9-1.03-4.01-1.03-6.32c0-2.31,0.34-4.41,1.03-6.29c0.69-1.88,1.66-3.49,2.91-4.84c1.25-1.34,2.73-2.38,4.45-3.11
		c1.72-0.73,3.6-1.09,5.65-1.09c2.05,0,3.94,0.36,5.68,1.09c1.73,0.73,3.22,1.76,4.45,3.11s2.19,2.95,2.88,4.84
		C336.45,231.36,336.8,233.46,336.8,235.77 M329.86,235.77c0-2.91-0.63-5.21-1.87-6.91c-1.25-1.7-2.99-2.54-5.23-2.54
		c-2.24,0-3.98,0.85-5.23,2.54c-1.25,1.7-1.87,4-1.87,6.91c0,2.95,0.62,5.28,1.87,6.99c1.25,1.72,2.99,2.57,5.23,2.57
		c2.24,0,3.98-0.86,5.23-2.57C329.24,241.05,329.86,238.72,329.86,235.77"/>
	<path class="st1" d="M355.7,207.02c1.57,0,2.95,0.14,4.14,0.42c1.19,0.28,2.09,0.53,2.68,0.76l-1.29,5.59
		c-0.63-0.3-1.37-0.54-2.21-0.73c-0.84-0.19-1.75-0.28-2.71-0.28c-1.08,0-1.99,0.16-2.74,0.47c-0.75,0.32-1.34,0.76-1.79,1.32
		c-0.45,0.56-0.76,1.24-0.95,2.04c-0.19,0.8-0.28,1.67-0.28,2.6v1.96h10.63v5.65h-10.63v23.6h-6.77V219.1
		c0-3.77,0.99-6.72,2.96-8.86C348.73,208.1,351.71,207.02,355.7,207.02 M378.3,207.02c1.57,0,2.95,0.14,4.14,0.42
		c1.19,0.28,2.09,0.53,2.68,0.76l-1.29,5.59c-0.64-0.3-1.37-0.54-2.21-0.73c-0.84-0.19-1.74-0.28-2.71-0.28
		c-1.08,0-1.99,0.16-2.74,0.47c-0.75,0.32-1.34,0.76-1.79,1.32c-0.45,0.56-0.77,1.24-0.95,2.04c-0.19,0.8-0.28,1.67-0.28,2.6v1.96
		h10.62v5.65h-10.62v23.6h-6.77V219.1c0-3.77,0.99-6.72,2.96-8.86C371.32,208.1,374.31,207.02,378.3,207.02"/>
	<path class="st1" d="M386.57,235.94c0-2.57,0.38-4.83,1.15-6.77c0.76-1.94,1.78-3.55,3.05-4.84c1.27-1.29,2.72-2.26,4.36-2.91
		c1.64-0.65,3.32-0.98,5.03-0.98c4.03,0,7.17,1.25,9.42,3.75c2.26,2.5,3.38,6.23,3.38,11.18c0,0.37-0.01,0.79-0.03,1.26
		c-0.02,0.47-0.05,0.89-0.08,1.26h-19.3c0.19,2.35,1.02,4.17,2.49,5.45c1.47,1.29,3.61,1.93,6.4,1.93c1.64,0,3.14-0.15,4.5-0.45
		c1.36-0.3,2.43-0.62,3.22-0.95l0.89,5.54c-0.37,0.19-0.89,0.38-1.54,0.59c-0.65,0.21-1.4,0.39-2.24,0.56
		c-0.84,0.17-1.74,0.31-2.71,0.42c-0.97,0.11-1.96,0.17-2.96,0.17c-2.57,0-4.81-0.38-6.71-1.15c-1.9-0.76-3.47-1.83-4.7-3.19
		c-1.23-1.36-2.14-2.96-2.74-4.81C386.87,240.16,386.57,238.14,386.57,235.94 M406.2,232.92c0-0.93-0.13-1.82-0.39-2.66
		c-0.26-0.84-0.64-1.57-1.15-2.18c-0.5-0.62-1.12-1.1-1.85-1.45c-0.73-0.35-1.59-0.53-2.6-0.53c-1.04,0-1.96,0.2-2.74,0.59
		c-0.78,0.39-1.44,0.9-1.99,1.54c-0.54,0.63-0.96,1.36-1.26,2.18c-0.3,0.82-0.5,1.66-0.62,2.52H406.2z"/>
	<path class="st1" d="M436.8,227.27c-0.56-0.19-1.33-0.38-2.32-0.59c-0.99-0.2-2.13-0.31-3.44-0.31c-0.75,0-1.54,0.08-2.38,0.22
		c-0.84,0.15-1.43,0.28-1.76,0.39v23.44h-6.77v-27.85c1.3-0.49,2.94-0.94,4.89-1.37c1.96-0.43,4.13-0.64,6.51-0.64
		c0.45,0,0.97,0.03,1.57,0.09c0.6,0.06,1.19,0.13,1.79,0.22c0.6,0.09,1.17,0.21,1.73,0.34c0.56,0.13,1.01,0.25,1.34,0.36
		L436.8,227.27z"/>
	<path class="st1" d="M442.33,213.46l6.77-1.12v8.84h10.4v5.65h-10.4v11.91c0,2.35,0.37,4.03,1.12,5.03
		c0.74,1.01,2.01,1.51,3.8,1.51c1.23,0,2.32-0.13,3.27-0.39c0.95-0.26,1.7-0.5,2.26-0.73l1.12,5.37c-0.78,0.33-1.81,0.68-3.08,1.03
		c-1.27,0.35-2.76,0.53-4.47,0.53c-2.09,0-3.83-0.28-5.23-0.84c-1.4-0.56-2.51-1.37-3.33-2.43c-0.82-1.06-1.4-2.35-1.73-3.86
		c-0.34-1.51-0.5-3.24-0.5-5.17V213.46z"/>
	<path class="st1" d="M463.92,235.94c0-2.57,0.38-4.83,1.15-6.77c0.76-1.94,1.78-3.55,3.05-4.84c1.27-1.29,2.72-2.26,4.36-2.91
		c1.64-0.65,3.32-0.98,5.03-0.98c4.03,0,7.17,1.25,9.42,3.75c2.26,2.5,3.38,6.23,3.38,11.18c0,0.37-0.01,0.79-0.03,1.26
		c-0.02,0.47-0.05,0.89-0.08,1.26h-19.3c0.19,2.35,1.02,4.17,2.49,5.45c1.47,1.29,3.61,1.93,6.4,1.93c1.64,0,3.14-0.15,4.5-0.45
		c1.36-0.3,2.43-0.62,3.22-0.95l0.89,5.54c-0.37,0.19-0.89,0.38-1.54,0.59c-0.65,0.21-1.4,0.39-2.24,0.56
		c-0.84,0.17-1.74,0.31-2.71,0.42c-0.97,0.11-1.96,0.17-2.96,0.17c-2.57,0-4.81-0.38-6.71-1.15c-1.9-0.76-3.47-1.83-4.7-3.19
		c-1.23-1.36-2.14-2.96-2.74-4.81C464.22,240.16,463.92,238.14,463.92,235.94 M483.55,232.92c0-0.93-0.13-1.82-0.39-2.66
		c-0.26-0.84-0.64-1.57-1.15-2.18c-0.5-0.62-1.12-1.1-1.85-1.45c-0.73-0.35-1.59-0.53-2.6-0.53c-1.04,0-1.96,0.2-2.74,0.59
		c-0.78,0.39-1.44,0.9-1.99,1.54c-0.54,0.63-0.96,1.36-1.26,2.18c-0.3,0.82-0.5,1.66-0.62,2.52H483.55z"/>
	<path class="st1" d="M504.81,245.56c1.79,0,3.09-0.21,3.92-0.64c0.82-0.43,1.23-1.16,1.23-2.21c0-0.97-0.44-1.77-1.31-2.41
		c-0.88-0.63-2.32-1.32-4.34-2.07c-1.23-0.45-2.36-0.92-3.38-1.43c-1.03-0.5-1.91-1.09-2.66-1.76c-0.75-0.67-1.33-1.48-1.76-2.43
		c-0.43-0.95-0.64-2.12-0.64-3.5c0-2.68,0.99-4.8,2.96-6.35c1.98-1.55,4.66-2.32,8.05-2.32c1.72,0,3.36,0.16,4.92,0.47
		c1.57,0.32,2.74,0.63,3.52,0.92l-1.23,5.48c-0.75-0.34-1.7-0.64-2.85-0.92c-1.16-0.28-2.5-0.42-4.03-0.42
		c-1.38,0-2.5,0.23-3.35,0.7c-0.86,0.47-1.29,1.18-1.29,2.15c0,0.49,0.09,0.91,0.25,1.29c0.17,0.37,0.46,0.72,0.87,1.03
		c0.41,0.32,0.95,0.63,1.62,0.95c0.67,0.32,1.49,0.64,2.46,0.98c1.6,0.6,2.96,1.18,4.08,1.76c1.12,0.58,2.04,1.23,2.77,1.96
		c0.73,0.73,1.26,1.56,1.59,2.49c0.33,0.93,0.5,2.05,0.5,3.36c0,2.8-1.03,4.91-3.1,6.35c-2.07,1.43-5.02,2.15-8.87,2.15
		c-2.57,0-4.64-0.21-6.21-0.64c-1.56-0.43-2.67-0.77-3.3-1.03l1.17-5.65c1.01,0.41,2.21,0.8,3.61,1.17
		C501.42,245.37,503.02,245.56,504.81,245.56"/>
	<path class="st1" d="M530.64,246.73c0,1.31-0.44,2.37-1.31,3.19c-0.88,0.82-1.93,1.23-3.16,1.23c-1.27,0-2.33-0.41-3.19-1.23
		c-0.86-0.82-1.29-1.88-1.29-3.19c0-1.3,0.43-2.38,1.29-3.22c0.86-0.84,1.92-1.26,3.19-1.26c1.23,0,2.28,0.42,3.16,1.26
		C530.21,244.36,530.64,245.43,530.64,246.73"/>
	<path class="st1" d="M537.91,222.12c1.3-0.37,3-0.73,5.09-1.06c2.09-0.34,4.4-0.5,6.94-0.5c2.39,0,4.38,0.33,5.98,0.98
		c1.6,0.65,2.88,1.57,3.83,2.74c0.95,1.17,1.62,2.59,2.01,4.25c0.39,1.66,0.59,3.48,0.59,5.45v16.44h-6.77v-15.38
		c0-1.57-0.1-2.9-0.31-4c-0.21-1.1-0.54-1.99-1.01-2.69c-0.47-0.69-1.1-1.19-1.9-1.51c-0.8-0.32-1.78-0.48-2.94-0.48
		c-0.86,0-1.75,0.06-2.68,0.17c-0.93,0.11-1.62,0.2-2.07,0.28v23.6h-6.77V222.12z"/>
	<path class="st1" d="M580.81,250.98c-2.01-0.04-3.68-0.26-5.01-0.67c-1.32-0.41-2.38-1-3.16-1.76c-0.78-0.76-1.33-1.71-1.65-2.85
		c-0.32-1.14-0.47-2.43-0.47-3.89v-33.67l6.77-1.12v33.5c0,0.82,0.06,1.51,0.2,2.07c0.13,0.56,0.36,1.03,0.7,1.43
		c0.34,0.39,0.79,0.69,1.37,0.89c0.58,0.21,1.32,0.36,2.21,0.48L580.81,250.98z"/>
</g>
</svg>
